<svg width="44" height="44" viewBox="0 0 44 44" fill="none" xmlns="http://www.w3.org/2000/svg">
<path fill-rule="evenodd" clip-rule="evenodd" d="M28.7999 16.2C28.7999 9.24121 23.1588 3.6 16.2 3.6C9.24121 3.6 3.59998 9.24121 3.59998 16.2C3.59998 23.1588 9.24121 28.8 16.2 28.8C23.1588 28.8 28.7999 23.1588 28.7999 16.2ZM32.4 16.2C32.4 7.25299 25.147 0 16.2 0C7.25293 0 0 7.25299 0 16.2C0 25.147 7.25293 32.4 16.2 32.4C20.0182 32.4 23.528 31.079 26.2971 28.8692L40.1219 42.6492C40.8381 43.3208 41.958 43.3032 42.6527 42.6095C43.3474 41.9157 43.3666 40.7959 42.696 40.0788L28.8693 26.297C31.0791 23.5279 32.4 20.0182 32.4 16.2Z" transform="translate(0.400024)" fill="#C65A57"/>
</svg>
